<svg id="svg" version="1.1" xmlns="http://www.w3.org/2000/svg" xmlns:xlink="http://www.w3.org/1999/xlink" width="400" height="400" viewBox="0, 0, 400,400"><g id="svgg"><path id="path0" d="M0.000 200.000 L 0.000 400.000 200.000 400.000 L 400.000 400.000 400.000 200.000 L 400.000 0.000 200.000 0.000 L 0.000 0.000 0.000 200.000 M217.333 12.643 C 329.112 24.180,405.867 126.659,384.625 236.000 C 364.856 337.758,265.897 404.421,164.000 384.625 C 62.241 364.855,-4.422 265.899,15.375 164.000 C 31.292 82.070,100.834 19.355,183.167 12.680 C 185.550 12.487,188.100 12.271,188.833 12.200 C 191.501 11.943,213.927 12.292,217.333 12.643 M109.667 77.602 L 109.667 80.538 115.076 81.431 C 123.428 82.810,125.128 83.965,125.977 88.843 C 126.217 90.221,126.334 104.632,126.334 133.027 C 126.334 176.417,126.471 182.206,127.698 190.833 C 131.514 217.671,143.886 231.622,167.250 235.434 L 171.667 236.155 171.667 272.720 C 171.667 315.885,171.658 316.010,168.367 318.182 C 166.370 319.500,157.108 321.658,153.417 321.666 C 153.111 321.666,153.000 322.559,153.000 325.013 L 153.000 328.360 190.583 328.244 C 230.575 328.121,229.258 328.170,237.503 326.499 C 280.081 317.875,307.771 276.054,304.364 225.517 C 301.222 178.903,278.071 154.029,233.917 149.828 L 231.667 149.614 231.673 125.557 C 231.682 95.541,232.077 91.143,235.136 86.975 C 237.205 84.157,241.691 81.885,246.917 81.011 L 249.333 80.606 249.333 77.637 L 249.333 74.667 226.500 74.667 L 203.667 74.667 203.667 77.613 L 203.667 80.560 206.082 80.991 C 220.752 83.613,221.788 86.707,221.602 127.333 L 221.500 149.500 187.238 149.585 L 152.976 149.670 153.071 152.896 L 153.167 156.122 158.167 156.891 C 167.222 158.283,169.590 159.484,170.871 163.333 C 171.543 165.352,172.058 224.667,171.403 224.667 C 169.772 224.667,164.390 222.220,161.500 220.165 C 151.395 212.979,146.470 199.929,145.316 177.276 C 144.664 164.481,145.046 89.590,145.775 87.412 C 147.169 83.245,149.002 82.404,160.083 80.848 L 161.667 80.626 161.667 77.646 L 161.667 74.667 135.667 74.667 L 109.667 74.667 109.667 77.602 M219.917 157.883 L 221.667 158.093 221.660 161.963 C 221.605 192.383,216.330 209.038,203.643 218.845 C 200.906 220.961,194.259 224.333,192.826 224.333 C 192.738 224.333,192.667 209.333,192.667 191.000 L 192.667 157.667 205.417 157.670 C 212.429 157.671,218.954 157.767,219.917 157.883 M234.611 159.989 C 264.647 167.699,279.500 192.629,279.500 235.333 C 279.500 296.208,255.859 324.225,208.063 319.994 C 198.463 319.144,195.203 316.031,193.410 306.000 C 192.903 303.159,192.844 299.342,192.839 268.902 L 192.833 234.971 195.797 233.975 C 218.858 226.225,230.754 204.528,231.561 168.750 C 231.678 163.571,231.837 159.333,231.914 159.333 C 231.992 159.333,233.206 159.629,234.611 159.989 M269.540 325.182 C 269.138 326.230,269.342 326.450,270.030 325.711 C 271.352 324.293,271.822 324.859,271.931 327.997 C 272.014 330.366,271.936 330.889,271.451 331.244 C 270.956 331.606,271.111 331.663,272.520 331.640 C 273.425 331.626,273.979 331.538,273.750 331.446 C 273.458 331.328,273.333 330.338,273.333 328.139 C 273.333 324.718,273.627 324.294,275.027 325.693 L 275.720 326.387 275.610 325.610 C 275.466 324.591,269.917 324.199,269.540 325.182 M276.424 325.249 C 277.142 326.043,277.274 331.167,276.583 331.446 C 276.354 331.538,276.692 331.614,277.333 331.614 C 277.975 331.614,278.313 331.538,278.083 331.446 C 277.805 331.334,277.673 330.537,277.686 329.056 L 277.706 326.833 278.926 329.250 C 279.597 330.579,280.230 331.667,280.333 331.667 C 280.437 331.667,281.070 330.579,281.741 329.250 L 282.960 326.833 282.980 329.056 C 282.993 330.537,282.861 331.334,282.583 331.446 C 282.354 331.538,282.917 331.608,283.833 331.602 C 284.750 331.595,285.237 331.521,284.917 331.437 C 284.084 331.219,284.058 326.190,284.885 325.276 C 285.406 324.701,285.389 324.667,284.592 324.667 C 283.588 324.667,283.405 324.873,282.000 327.598 C 281.405 328.751,280.825 329.603,280.712 329.490 C 280.599 329.376,279.980 328.283,279.336 327.059 C 278.271 325.033,278.063 324.823,277.007 324.723 C 275.886 324.617,275.867 324.634,276.424 325.249 " stroke="none" fill="#fbfbfb" fill-rule="evenodd"></path><path id="path1" d="M192.000 12.205 C 90.640 17.213,12.221 99.128,12.221 200.000 C 12.221 328.165,137.961 418.816,259.500 378.273 C 269.382 374.977,282.371 369.318,290.000 364.986 C 323.409 346.014,346.014 323.409,364.986 290.000 C 387.734 249.942,393.985 196.592,381.326 150.542 C 377.557 136.832,371.039 120.659,364.986 110.000 C 346.014 76.591,323.409 53.986,290.000 35.014 C 282.371 30.682,269.382 25.023,259.500 21.727 C 238.543 14.736,213.181 11.158,192.000 12.205 M161.929 77.743 L 161.833 80.820 157.918 81.376 C 149.405 82.586,147.328 83.598,146.092 87.137 C 145.174 89.767,145.182 178.964,146.101 186.301 C 148.205 203.097,152.844 213.440,161.026 219.581 C 163.789 221.655,169.549 224.333,171.247 224.333 C 172.022 224.333,171.664 167.394,170.870 164.349 C 169.654 159.685,167.038 158.232,157.667 157.015 C 156.108 156.813,154.421 156.565,153.917 156.464 L 153.000 156.280 153.000 152.807 L 153.000 149.333 187.167 149.333 L 221.333 149.333 221.333 125.583 C 221.332 94.373,220.879 90.190,217.066 86.215 C 214.710 83.759,209.919 81.621,205.697 81.144 L 203.667 80.914 203.667 77.790 L 203.667 74.667 226.667 74.667 L 249.667 74.667 249.667 77.677 C 249.667 79.805,249.544 80.720,249.250 80.797 C 249.021 80.858,247.483 81.160,245.833 81.470 C 239.407 82.676,235.090 85.819,233.706 90.297 C 232.025 95.738,231.833 99.328,231.833 125.327 L 231.833 149.487 236.167 149.882 C 274.350 153.363,297.993 176.178,303.478 214.833 C 311.535 271.608,282.537 319.048,234.811 327.172 C 226.920 328.515,222.262 328.660,186.739 328.663 L 152.977 328.667 153.072 325.098 L 153.167 321.530 158.306 320.773 C 165.825 319.666,168.289 318.729,169.704 316.440 C 171.470 313.582,171.434 314.404,171.578 273.929 L 171.712 236.357 170.939 236.206 C 170.514 236.123,168.537 235.807,166.544 235.505 C 146.838 232.517,133.920 220.150,129.145 199.704 C 126.515 188.440,126.586 190.023,126.336 137.000 C 126.179 103.631,126.001 89.103,125.739 88.167 C 124.489 83.695,122.617 82.641,113.750 81.421 L 109.667 80.860 109.667 77.763 L 109.667 74.667 135.846 74.667 L 162.025 74.667 161.929 77.743 M193.000 191.000 C 193.000 209.150,193.069 224.000,193.154 224.000 C 194.209 224.000,199.818 221.277,202.221 219.598 C 214.989 210.679,220.803 195.039,221.246 168.417 L 221.419 158.000 207.209 158.000 L 193.000 158.000 193.000 191.000 M231.664 167.583 C 231.651 203.349,219.064 226.760,195.879 234.143 L 193.000 235.059 193.000 267.955 C 193.000 287.997,193.131 301.954,193.336 303.675 C 194.517 313.587,197.016 317.341,203.687 319.220 C 207.238 320.220,225.676 320.118,231.167 319.068 C 261.036 313.355,276.814 289.196,279.323 245.333 C 281.833 201.463,268.590 172.695,241.047 162.185 C 237.998 161.021,233.236 159.667,232.194 159.667 C 231.728 159.667,231.666 160.584,231.664 167.583 M279.524 327.048 L 280.723 329.429 281.862 327.376 C 282.488 326.246,283.000 325.174,283.000 324.994 C 283.000 324.814,283.600 324.667,284.333 324.667 C 285.067 324.667,285.667 324.817,285.667 325.000 C 285.667 325.183,285.442 325.333,285.167 325.333 C 284.759 325.333,284.667 325.889,284.667 328.333 C 284.667 330.111,284.802 331.333,285.000 331.333 C 285.183 331.333,285.333 331.483,285.333 331.667 C 285.333 331.850,284.583 332.000,283.667 332.000 C 281.873 332.000,281.728 331.891,282.500 331.119 C 282.822 330.797,282.993 330.005,282.980 328.893 L 282.960 327.167 281.741 329.583 C 281.070 330.912,280.394 332.000,280.240 332.000 C 280.085 332.000,279.448 330.912,278.825 329.583 L 277.691 327.167 277.679 329.094 C 277.670 330.507,277.800 331.072,278.167 331.213 C 279.113 331.576,278.664 332.000,277.333 332.000 C 276.002 332.000,275.554 331.576,276.500 331.213 C 277.018 331.014,277.240 327.014,276.798 325.861 C 276.541 325.192,276.000 325.173,276.000 325.833 C 276.000 326.108,275.868 326.333,275.707 326.333 C 275.547 326.333,275.228 326.108,275.000 325.833 C 274.772 325.558,274.303 325.333,273.959 325.333 C 273.114 325.333,272.995 330.891,273.833 331.213 C 274.896 331.621,274.253 332.000,272.500 332.000 C 270.747 332.000,270.104 331.621,271.167 331.213 C 272.047 330.875,271.880 325.333,270.990 325.333 C 270.617 325.333,270.226 325.558,270.121 325.833 C 269.791 326.691,269.076 326.417,269.252 325.500 L 269.411 324.667 273.868 324.667 L 278.325 324.667 279.524 327.048 " stroke="none" fill="#046bab" fill-rule="evenodd"></path><path id="path2" d="M192.417 12.230 C 192.737 12.314,193.262 12.314,193.583 12.230 C 193.904 12.146,193.642 12.077,193.000 12.077 C 192.358 12.077,192.096 12.146,192.417 12.230 M206.417 12.230 C 206.737 12.314,207.262 12.314,207.583 12.230 C 207.904 12.146,207.642 12.077,207.000 12.077 C 206.358 12.077,206.096 12.146,206.417 12.230 M161.735 77.556 C 161.688 79.634,161.533 80.665,161.250 80.779 C 160.924 80.911,160.926 80.953,161.260 80.974 C 161.919 81.014,162.038 80.344,161.916 77.305 L 161.802 74.500 161.735 77.556 M249.401 77.556 C 249.355 79.634,249.200 80.665,248.917 80.779 C 248.590 80.911,248.593 80.953,248.927 80.974 C 249.585 81.014,249.705 80.344,249.582 77.305 L 249.469 74.500 249.401 77.556 M192.827 191.000 C 192.827 209.242,192.867 216.704,192.917 207.583 C 192.966 198.462,192.966 183.537,192.917 174.417 C 192.867 165.296,192.827 172.758,192.827 191.000 M171.424 170.333 C 171.424 171.158,171.489 171.496,171.569 171.083 C 171.648 170.671,171.648 169.996,171.569 169.583 C 171.489 169.171,171.424 169.508,171.424 170.333 M12.077 193.000 C 12.077 193.642,12.146 193.904,12.230 193.583 C 12.314 193.262,12.314 192.737,12.230 192.417 C 12.146 192.096,12.077 192.358,12.077 193.000 M387.744 193.000 C 387.744 193.642,387.813 193.904,387.896 193.583 C 387.980 193.262,387.980 192.737,387.896 192.417 C 387.813 192.096,387.744 192.358,387.744 193.000 M12.077 207.000 C 12.077 207.642,12.146 207.904,12.230 207.583 C 12.314 207.262,12.314 206.737,12.230 206.417 C 12.146 206.096,12.077 206.358,12.077 207.000 M387.744 207.000 C 387.744 207.642,387.813 207.904,387.896 207.583 C 387.980 207.262,387.980 206.737,387.896 206.417 C 387.813 206.096,387.744 206.358,387.744 207.000 M192.827 266.000 C 192.827 283.142,192.867 290.154,192.917 281.583 C 192.966 273.012,192.966 258.987,192.917 250.417 C 192.867 241.846,192.827 248.858,192.827 266.000 M171.417 307.500 C 171.421 308.233,171.489 308.494,171.569 308.079 C 171.649 307.665,171.646 307.065,171.562 306.746 C 171.479 306.427,171.414 306.767,171.417 307.500 M215.263 320.247 C 216.416 320.312,218.216 320.312,219.263 320.246 C 220.310 320.180,219.367 320.127,217.167 320.127 C 214.967 320.128,214.110 320.182,215.263 320.247 M170.275 328.583 C 179.869 328.632,195.469 328.632,204.942 328.583 C 214.416 328.534,206.567 328.494,187.500 328.494 C 168.433 328.494,160.682 328.534,170.275 328.583 M192.417 387.896 C 192.737 387.980,193.262 387.980,193.583 387.896 C 193.904 387.813,193.642 387.744,193.000 387.744 C 192.358 387.744,192.096 387.813,192.417 387.896 M206.417 387.896 C 206.737 387.980,207.262 387.980,207.583 387.896 C 207.904 387.813,207.642 387.744,207.000 387.744 C 206.358 387.744,206.096 387.813,206.417 387.896 " stroke="none" fill="#5a98c0" fill-rule="evenodd"></path><path id="path3" d="M70.315 63.917 L 69.167 65.167 70.417 64.018 C 71.580 62.949,71.820 62.667,71.565 62.667 C 71.510 62.667,70.947 63.229,70.315 63.917 M329.333 63.833 C 329.955 64.475,330.539 65.000,330.631 65.000 C 330.722 65.000,330.289 64.475,329.667 63.833 C 329.045 63.192,328.461 62.667,328.369 62.667 C 328.278 62.667,328.711 63.192,329.333 63.833 M63.649 70.583 L 62.500 71.833 63.750 70.685 C 64.913 69.615,65.153 69.333,64.899 69.333 C 64.843 69.333,64.281 69.896,63.649 70.583 M336.000 70.500 C 336.622 71.142,337.206 71.667,337.297 71.667 C 337.389 71.667,336.955 71.142,336.333 70.500 C 335.711 69.858,335.128 69.333,335.036 69.333 C 334.944 69.333,335.378 69.858,336.000 70.500 M283.000 170.167 C 283.622 170.808,284.206 171.333,284.297 171.333 C 284.389 171.333,283.955 170.808,283.333 170.167 C 282.711 169.525,282.128 169.000,282.036 169.000 C 281.944 169.000,282.378 169.525,283.000 170.167 M63.667 329.500 C 64.289 330.142,64.872 330.667,64.964 330.667 C 65.056 330.667,64.622 330.142,64.000 329.500 C 63.378 328.858,62.794 328.333,62.703 328.333 C 62.611 328.333,63.045 328.858,63.667 329.500 M335.982 329.583 L 334.833 330.833 336.083 329.685 C 337.247 328.615,337.487 328.333,337.232 328.333 C 337.176 328.333,336.614 328.896,335.982 329.583 M70.333 336.167 C 70.955 336.808,71.539 337.333,71.631 337.333 C 71.722 337.333,71.289 336.808,70.667 336.167 C 70.045 335.525,69.461 335.000,69.369 335.000 C 69.278 335.000,69.711 335.525,70.333 336.167 M329.315 336.250 L 328.167 337.500 329.417 336.351 C 330.580 335.282,330.820 335.000,330.565 335.000 C 330.510 335.000,329.947 335.563,329.315 336.250 " stroke="none" fill="#2e7aa9" fill-rule="evenodd"></path><path id="path4" d="M190.417 12.230 C 190.737 12.314,191.262 12.314,191.583 12.230 C 191.904 12.146,191.642 12.077,191.000 12.077 C 190.358 12.077,190.096 12.146,190.417 12.230 M208.417 12.230 C 208.737 12.314,209.262 12.314,209.583 12.230 C 209.904 12.146,209.642 12.077,209.000 12.077 C 208.358 12.077,208.096 12.146,208.417 12.230 M66.824 67.083 L 64.500 69.500 66.917 67.176 C 69.161 65.017,69.486 64.667,69.241 64.667 C 69.190 64.667,68.103 65.754,66.824 67.083 M332.833 67.000 C 334.107 68.283,335.224 69.333,335.315 69.333 C 335.407 69.333,334.440 68.283,333.167 67.000 C 331.893 65.717,330.776 64.667,330.685 64.667 C 330.593 64.667,331.560 65.717,332.833 67.000 M145.161 133.667 C 145.161 156.125,145.201 165.313,145.250 154.083 C 145.299 142.854,145.299 124.479,145.250 113.250 C 145.201 102.021,145.161 111.208,145.161 133.667 M221.414 125.915 L 221.333 149.330 187.083 149.417 L 152.833 149.503 187.094 149.585 C 214.256 149.650,221.387 149.580,221.513 149.250 C 221.601 149.021,221.633 138.408,221.584 125.667 L 221.495 102.500 221.414 125.915 M199.250 157.916 C 202.963 157.970,209.038 157.970,212.750 157.916 C 216.463 157.863,213.425 157.819,206.000 157.819 C 198.575 157.819,195.538 157.863,199.250 157.916 M221.469 163.333 C 221.469 166.358,221.520 167.596,221.581 166.083 C 221.643 164.571,221.643 162.096,221.581 160.583 C 221.520 159.071,221.469 160.308,221.469 163.333 M231.424 174.000 C 231.424 174.825,231.489 175.162,231.569 174.750 C 231.648 174.338,231.648 173.662,231.569 173.250 C 231.489 172.838,231.424 173.175,231.424 174.000 M126.411 178.333 C 126.411 178.975,126.479 179.237,126.563 178.917 C 126.647 178.596,126.647 178.071,126.563 177.750 C 126.479 177.429,126.411 177.692,126.411 178.333 M12.077 191.000 C 12.077 191.642,12.146 191.904,12.230 191.583 C 12.314 191.262,12.314 190.737,12.230 190.417 C 12.146 190.096,12.077 190.358,12.077 191.000 M387.744 191.000 C 387.744 191.642,387.813 191.904,387.896 191.583 C 387.980 191.262,387.980 190.737,387.896 190.417 C 387.813 190.096,387.744 190.358,387.744 191.000 M12.077 209.000 C 12.077 209.642,12.146 209.904,12.230 209.583 C 12.314 209.262,12.314 208.737,12.230 208.417 C 12.146 208.096,12.077 208.358,12.077 209.000 M387.744 209.000 C 387.744 209.642,387.813 209.904,387.896 209.583 C 387.980 209.262,387.980 208.737,387.896 208.417 C 387.813 208.096,387.744 208.358,387.744 209.000 M213.655 222.917 L 211.833 224.833 213.750 223.011 C 215.531 221.319,215.819 221.000,215.572 221.000 C 215.520 221.000,214.657 221.862,213.655 222.917 M304.411 227.000 C 304.411 227.642,304.479 227.904,304.563 227.583 C 304.647 227.262,304.647 226.737,304.563 226.417 C 304.479 226.096,304.411 226.358,304.411 227.000 M304.411 240.000 C 304.411 240.642,304.479 240.904,304.563 240.583 C 304.647 240.262,304.647 239.737,304.563 239.417 C 304.479 239.096,304.411 239.358,304.411 240.000 M279.411 244.667 C 279.411 245.308,279.479 245.571,279.563 245.250 C 279.647 244.929,279.647 244.404,279.563 244.083 C 279.479 243.762,279.411 244.025,279.411 244.667 M192.751 298.167 C 192.754 298.900,192.823 299.161,192.902 298.746 C 192.982 298.331,192.979 297.731,192.896 297.413 C 192.812 297.094,192.747 297.433,192.751 298.167 M277.322 305.250 L 275.500 307.167 277.417 305.345 C 279.197 303.652,279.486 303.333,279.239 303.333 C 279.187 303.333,278.324 304.196,277.322 305.250 M211.088 320.239 C 211.595 320.316,212.345 320.314,212.755 320.235 C 213.165 320.156,212.750 320.093,211.833 320.095 C 210.917 320.098,210.581 320.163,211.088 320.239 M221.417 320.230 C 221.737 320.314,222.262 320.314,222.583 320.230 C 222.904 320.146,222.642 320.077,222.000 320.077 C 221.358 320.077,221.096 320.146,221.417 320.230 M271.071 325.208 C 271.538 325.347,271.662 325.887,271.758 328.190 L 271.875 331.002 271.854 328.088 C 271.835 325.427,271.776 325.168,271.167 325.106 C 270.672 325.056,270.647 325.082,271.071 325.208 M284.452 328.500 C 284.451 330.150,284.507 330.867,284.577 330.093 C 284.647 329.320,284.648 327.970,284.579 327.093 C 284.510 326.217,284.453 326.850,284.452 328.500 M66.833 333.000 C 68.107 334.283,69.224 335.333,69.315 335.333 C 69.407 335.333,68.440 334.283,67.167 333.000 C 65.893 331.717,64.776 330.667,64.685 330.667 C 64.593 330.667,65.560 331.717,66.833 333.000 M332.824 333.083 L 330.500 335.500 332.917 333.176 C 335.161 331.017,335.486 330.667,335.241 330.667 C 335.190 330.667,334.103 331.754,332.824 333.083 M272.500 331.667 L 270.833 331.895 272.397 331.948 C 273.257 331.976,274.053 331.850,274.167 331.667 C 274.280 331.483,274.326 331.357,274.270 331.386 C 274.213 331.415,273.417 331.541,272.500 331.667 M282.000 331.734 C 282.000 331.880,282.787 331.983,283.750 331.961 C 285.568 331.921,285.394 331.790,283.250 331.586 C 282.563 331.521,282.000 331.587,282.000 331.734 M276.750 331.896 C 277.071 331.980,277.596 331.980,277.917 331.896 C 278.237 331.813,277.975 331.744,277.333 331.744 C 276.692 331.744,276.429 331.813,276.750 331.896 M190.417 387.896 C 190.737 387.980,191.262 387.980,191.583 387.896 C 191.904 387.813,191.642 387.744,191.000 387.744 C 190.358 387.744,190.096 387.813,190.417 387.896 M208.417 387.896 C 208.737 387.980,209.262 387.980,209.583 387.896 C 209.904 387.813,209.642 387.744,209.000 387.744 C 208.358 387.744,208.096 387.813,208.417 387.896 " stroke="none" fill="#86accc" fill-rule="evenodd"></path></g></svg>